<?xml version="1.0" encoding="utf-8"?>
<!-- Generator: Adobe Illustrator 24.0.2, SVG Export Plug-In . SVG Version: 6.00 Build 0)  -->
<svg version="1.1" xmlns="http://www.w3.org/2000/svg" xmlns:xlink="http://www.w3.org/1999/xlink" x="0px" y="0px"
	 viewBox="0 0 497.513 125.999" enable-background="new 0 0 497.513 125.999" xml:space="preserve">
<g id="Logo">
	<polygon points="19.976,3.522 28.339,4.351 28.339,125.999 19.976,122.889 	"/>
	<path d="M16.56,22.941v66.05c0,0-16.56-6.814-16.56-26.999C0,27.445,16.56,22.941,16.56,22.941z"/>
	<path d="M203.392,59.944h10.482v6.786h0.101c2.106-4.249,3.156-6.786,7.971-6.786c1.153,0,2.608,0,3.724,0v11.683
		c-1.354-0.59-3.862-1.062-5.868-1.062c-2.81,0-5.777,3.658-5.777,9.441v11.918h-10.633V59.944z"/>
	<path d="M95.558,67.494c0-7.848-2.953-14.633-8.721-14.633h-8.176v29.622H87.7C93.877,82.483,95.558,73.276,95.558,67.494z"/>
	<path d="M130.361,70.997c-1.204-0.261-2.578-0.432-3.777-0.432c-2.81,0-5.777,3.658-5.777,9.441v11.918h-10.633v-31.98h10.482
		v6.786h0.101c1.455-2.935,2.407-5.052,4.444-6.082l-11.625-23.319L115.431,0L32.088,4.558v121.442l49.438-23.6l-4.469-9.082
		l-35.02,16v-8.184L67.851,90.89v-7.271c-1.101,1.06-2.54,2.297-4.171,3.31c-3.798,2.356-11.475,3.389-16.138-0.715
		c-1.412-1.242-2.5-2.516-3.32-3.64V76.36c1.328,2.978,3.343,6.257,6.183,7.828c4.795,2.653,8.9,2.199,11.57,0.412
		c2.046-1.37,4.726-4.138,5.876-5.364v-2.778L51.399,44.989c0.313,1.563,0.216,2.551,0.259,3.582
		c0.727,17.542-7.435,20.863-7.435,20.863V57.291c0,0,0.314-3.923,2.476-9.479c0.884-2.271,1.691-3.461,2.714-5.555l-5.154-9.884
		l-0.036-6.267l6.764,12.261c0,0,0,0,0-0.001l9.55,17.308c0,0,0,0,0,0l7.314,13.255V43.42h23.438
		c10.037,0,15.442,10.089,15.442,24.133c0,16.58-7.539,24.371-16.851,24.371h-9.34l4.152,7.524l0.267,0.484l7.935,14.381
		l45.62-26.965L130.361,70.997z M107.5,15.654l0.009,9.352l-4.575-9.249"/>
	<path d="M144.702,88.729l-14.323-28.785h11.29c1.789,6.316,9.312,22.127,9.312,22.127s5.256-7.11,4.215-22.127h10.128
		c-1.85,14.892-2.683,28.202-17.473,37c-4.566,2.717-17.473,10.185-17.473,10.185V97.104L144.702,88.729z"/>
	<path d="M416.213,82.152c0,0-1.091,10.343-15.926,10.343c-16.781,0-16.781-13.843-16.781-16.616
		c0-10.853,6.579-16.504,16.516-16.504c10.246,0,16.605,5.708,16.605,18.482v0.904h-23.493c0.486,3.955,2.638,6.24,7.451,6.24
		c5.334,0,6.069-2.849,6.069-2.849H416.213z M406.999,72.544c-0.53-3.392-2.518-6.274-6.933-6.274c-4.416,0-6.403,2.883-6.934,6.274
		H406.999z"/>
	<path d="M199.058,82.152c0,0-1.091,10.343-15.926,10.343c-16.781,0-16.781-13.843-16.781-16.616
		c0-10.853,6.579-16.504,16.516-16.504c10.246,0,16.604,5.708,16.604,18.482v0.904h-23.493c0.486,3.955,2.638,6.24,7.451,6.24
		c5.334,0,6.069-2.849,6.069-2.849H199.058z M189.844,72.544c-0.53-3.392-2.518-6.274-6.933-6.274c-4.416,0-6.403,2.883-6.934,6.274
		H189.844z"/>
	<path d="M252.945,66.487l-8.276,25.437h-9.786l-9.213-48.504h11.536l4.198,29.815l6.47-23.44h10.132l6.47,23.44l4.198-29.815
		h11.537l-9.214,48.504h-9.787L252.945,66.487z"/>
	<path d="M316.978,50.884h10.633v41.04h-10.633V50.884z"/>
	<path d="M333.155,50.884h10.633v41.04h-10.633V50.884z"/>
	<path d="M367.29,73.235l8.46-29.815h13.091l-16.207,48.504h-10.64L345.788,43.42h13.09L367.29,73.235z"/>
	<path d="M420.588,59.944h10.332v4.602h0.101c2.156-3.127,6.068-5.428,11.435-5.428c6.671,0,11.535,3.776,11.535,11.742v21.064
		h-10.633V74.636c0-4.071-1.956-6.077-5.517-6.077c-3.762,0-6.621,2.419-6.621,7.67v15.695h-10.633V59.944z"/>
	<path d="M456.534,59.944h4.6v-8.262h10.633v8.262h5.596v8.261h-5.596v12.862c0,2.179,0.991,3.016,3.461,3.016
		c1.304,0,0.73,0.058,2.135,0v7.842c0,0-3.339,0.02-6.448,0.02c-6.674,0-9.78-1.316-9.78-8.221V68.205h-4.6V59.944z"/>
	<path fill="none" stroke="#F1EE82" stroke-width="0.25" stroke-miterlimit="10" d="M147.653,92.495"/>
	<path fill="none" stroke="#F1EE82" stroke-width="0.25" stroke-miterlimit="10" d="M158.089,59.944"/>
	<path d="M301.559,59.783v3.648c-1.355-0.874-2.973-1.642-4.937-2.244c-9.122-2.795-17.831,4.847-18.893,15.219
		c-0.749,7.308,2.482,16.035,15.087,16.035c3.508,0,6.431-1.909,8.743-4.438v3.76h9.393v-31.98H301.559z M293.536,84.271
		c-3.813,0-7.154-2.067-6.439-8.137c0.737-6.274,5.497-9.003,9.283-8.206c3.582,0.754,4.78,3.616,4.78,8.574
		C301.16,81.397,297.344,84.271,293.536,84.271z"/>
</g>
<g id="Trademark">
	<g>
		<path d="M486.088,28.832c1.96,0,3.839,0.49,5.638,1.469c1.799,0.98,3.214,2.385,4.243,4.214c1.029,1.83,1.544,3.744,1.544,5.742
			c0,1.989-0.505,3.885-1.514,5.69c-1.009,1.805-2.416,3.212-4.221,4.221c-1.805,1.009-3.701,1.514-5.69,1.514
			c-1.989,0-3.885-0.505-5.69-1.514c-1.805-1.009-3.212-2.416-4.221-4.221c-1.009-1.805-1.514-3.701-1.514-5.69
			c0-1.999,0.515-3.912,1.544-5.742c1.029-1.829,2.444-3.234,4.243-4.214C482.249,29.322,484.129,28.832,486.088,28.832z
			 M486.103,31.069c-1.572,0-3.078,0.393-4.519,1.178c-1.441,0.786-2.579,1.915-3.408,3.386c-0.83,1.472-1.245,3.013-1.245,4.624
			c0,1.602,0.405,3.128,1.216,4.579c0.811,1.452,1.941,2.586,3.393,3.401c1.452,0.816,2.974,1.223,4.564,1.223
			c1.602,0,3.125-0.407,4.572-1.223c1.447-0.815,2.578-1.948,3.393-3.401c0.815-1.451,1.223-2.977,1.223-4.579
			c0-1.611-0.416-3.152-1.245-4.624c-0.83-1.471-1.969-2.6-3.416-3.386C489.183,31.462,487.675,31.069,486.103,31.069z
			 M480.928,46.372V34.246h2.461c2.306,0,3.6,0.01,3.878,0.03c0.815,0.07,1.449,0.231,1.902,0.485s0.83,0.641,1.134,1.163
			c0.304,0.522,0.455,1.102,0.455,1.738c0,0.875-0.285,1.624-0.858,2.245c-0.572,0.622-1.374,1.007-2.409,1.156
			c0.367,0.14,0.651,0.291,0.85,0.455s0.472,0.475,0.82,0.932c0.089,0.119,0.388,0.612,0.895,1.477l1.432,2.446h-3.043l-1.014-1.969
			c-0.686-1.322-1.253-2.155-1.7-2.498c-0.447-0.343-1.014-0.515-1.7-0.515h-0.641v4.982H480.928z M483.389,39.481h0.999
			c1.423,0,2.304-0.054,2.647-0.164c0.343-0.109,0.613-0.3,0.813-0.574c0.199-0.273,0.298-0.584,0.298-0.932
			c0-0.337-0.097-0.639-0.291-0.902c-0.194-0.263-0.47-0.452-0.828-0.567c-0.358-0.114-1.238-0.172-2.64-0.172h-0.999V39.481z"/>
	</g>
</g>
</svg>
