<?xml version="1.0" encoding="utf-8"?>
<!-- Generator: Adobe Illustrator 24.3.0, SVG Export Plug-In . SVG Version: 6.00 Build 0)  -->
<svg version="1.1" xmlns="http://www.w3.org/2000/svg" xmlns:xlink="http://www.w3.org/1999/xlink" x="0px" y="0px"
	 viewBox="0 0 280 96" style="enable-background:new 0 0 280 96;" xml:space="preserve">
<style type="text/css">
	.st0{fill:#C7312B;}
</style>
<g id="Pipe">
	<path d="M266.76,48.94c-1.36-14.02-14.93-35.38-39.74-36.81c-1.29-0.27-2.6-0.47-3.91-0.62c-0.66-0.07-0.92,0.15-1.58,0.1
		c-0.24-0.54-1.2-1.19-1.8-1.19c-1.35,0-2.69,0.05-4.03,0.15c-0.43-0.01-0.82,0.02-1.07-0.31c-0.39-0.5-0.94-0.6-1.55-0.59
		c-1.18,0.01-2.18,0.49-3.35,0.38c-0.24-0.02-0.48-0.04-0.73-0.06c-0.5-0.04-0.59-0.44-0.93-0.72c-0.49-0.41-1.1-0.36-1.7-0.35
		c-1.36,0.02-1.96,0.41-3.32,0.32c-0.48-0.03-1.26-0.78-1.7-0.96c-0.61-0.25-1.42-0.11-2.06-0.1c-1.2,0.03-2.14,0.31-3.33,0.08
		c-0.82-0.99-2.8-0.73-3.91-0.85c-0.66-0.08-0.91,0.21-1.58,0.16c-0.3-0.02-0.98-0.4-1.27-0.45c-0.21-0.21-0.49-0.36-0.78-0.42
		c-0.53-0.11-1.13-0.02-1.67-0.01c-0.69,0.02-1.5,0.31-2.19,0.25c-0.63-0.06-1.18-0.57-1.81-0.68c-0.35-0.28-0.75-0.35-1.19-0.35
		c-0.68,0-1.36-0.01-2.04,0.01c-0.75-0.02-1.08,0.19-1.82,0.09c-0.46-0.06-1.19-0.49-1.6-0.69c-0.38-0.18-0.87-0.41-1.3-0.41
		c-1.65,0-2.65,0.31-4.26,0.43c-0.23-0.56-0.79-0.94-1.43-0.94c-31.28,0-45.28,20.06-45.28,39.94c0,12.36,5.19,24.72,14.23,33.9
		c7.18,7.29,20.06,15.97,40.7,15.97c3.66,0,7.24-0.31,10.65-0.92c2.05-0.15,4.07-0.4,6.02-0.75c2.04-0.15,4.06-0.4,6-0.75
		c2.06-0.14,4.1-0.39,6.04-0.75c2.05-0.14,4.08-0.39,6.01-0.75c2.06-0.14,4.08-0.39,6.01-0.75c2.06-0.14,4.08-0.39,6.01-0.75
		c2.06-0.13,4.08-0.39,6.03-0.75c10.55-0.68,19.46-4.43,25.76-10.86C264.36,69.98,267.8,59.69,266.76,48.94z M153.02,9.64
		c-5.37,2.48-9.94,5.94-13.52,10.29c-3.58,3.45-6.25,7.67-7.93,12.37c-1.26,0.39-2.28,0.73-3,0.98
		C131.77,22.86,139.7,13.7,153.02,9.64z M167.19,53.47v5.47h-18.12v-21.8h9.66v16.33H167.19z M156.23,65
		c1.77,3.02,3.91,5.85,6.41,8.39c0.48,0.48,1.03,1.01,1.68,1.61c0.4,0.44,0.79,0.87,1.21,1.29c1.24,1.26,2.55,2.45,3.92,3.57
		c-4.58-2.23-8.01-4.91-10.42-7.2c-1.93-2.22-3.62-4.64-5.06-7.17C154.69,65.3,155.45,65.14,156.23,65z M166.52,72.88
		c-2.35-2.6-4.36-5.47-6.01-8.51c0.75-0.08,1.53-0.14,2.31-0.19c1.79,3.17,4,6.14,6.6,8.79c0.78,0.8,1.63,1.59,2.52,2.35l0.13,0.14
		c0.1,0.11,0.21,0.22,0.32,0.34c1.32,1.34,2.71,2.6,4.18,3.77C172.88,77.84,169.53,75.61,166.52,72.88z M174.09,73.15
		c-2.6-2.74-4.81-5.81-6.58-9.08c0.79,0.02,1.58,0.06,2.38,0.12c1.73,3.01,3.84,5.82,6.32,8.34c0.95,0.96,2,1.93,3.14,2.87
		c1.34,1.36,2.75,2.62,4.24,3.8C180.14,77.64,176.96,75.62,174.09,73.15z M185.08,45.31v5.47h-5.89v2.69h8.46v5.47h-18.1v-21.8h18.1
		v5.47h-8.46v2.7H185.08z M181.45,73.2c-2.49-2.54-4.62-5.37-6.37-8.39c0.85,0.14,1.7,0.3,2.54,0.48c1.53,2.44,3.32,4.73,5.37,6.82
		c1.19,1.21,2.5,2.38,3.89,3.47c1.17,1.14,2.4,2.21,3.69,3.21C187.26,77.34,184.21,75.47,181.45,73.2z M188.93,73.34
		c-0.21-0.2-0.41-0.41-0.61-0.61c-1.76-1.8-3.34-3.74-4.73-5.8c1.03,0.34,2.04,0.72,3.03,1.12c0.97,1.27,2.02,2.49,3.15,3.64
		c1.37,1.4,2.91,2.74,4.55,3.97c1.03,0.96,2.11,1.88,3.23,2.74C194.44,77.08,191.55,75.38,188.93,73.34z M186.53,31.92
		c1.66-3.7,4.05-7.01,7.11-9.76c0.27-0.19,0.53-0.36,0.77-0.52c0.43,0.31,0.85,0.6,1.27,0.88c-0.01,0.01-0.03,0.02-0.04,0.03
		c-3.18,2.67-5.68,6.04-7.39,9.85C187.77,32.27,187.2,32.1,186.53,31.92z M191.69,19.82c-0.93,0.66-1.89,1.4-2.87,2.22
		c-2.87,2.41-5.2,5.38-6.91,8.73c-0.59-0.14-1.21-0.27-1.85-0.41c1.55-3.08,3.61-5.88,6.15-8.27c2.71-1.99,4.34-2.61,4.86-2.77
		c0.22,0.15,0.45,0.3,0.67,0.45C191.73,19.79,191.71,19.8,191.69,19.82z M184.22,19.78c-0.74,0.55-1.46,1.12-2.2,1.74
		c-2.66,2.23-4.85,4.93-6.54,7.96c-0.66-0.11-1.33-0.22-2.02-0.33c1.41-2.6,3.19-4.99,5.31-7.1c3.89-2.98,5.85-3.4,5.85-3.4
		c0.15-0.02,0.29-0.06,0.42-0.12l1.39-0.64C185.66,18.49,184.92,19.12,184.22,19.78z M176.72,19.79c-0.48,0.37-0.98,0.77-1.51,1.21
		c-2.54,2.13-4.67,4.68-6.34,7.53c-0.72-0.08-1.45-0.16-2.19-0.22c1.29-2.28,2.85-4.4,4.68-6.3c4.4-3.51,6.62-3.96,6.61-3.96
		c0.15-0.02,0.29-0.06,0.43-0.13l0.93-0.43C178.41,18.22,177.54,18.98,176.72,19.79z M169.26,19.79c-0.28,0.22-0.56,0.45-0.85,0.7
		c-2.54,2.13-4.69,4.68-6.38,7.53c-0.8-0.03-1.6-0.04-2.41-0.05c1.21-2.16,2.67-4.18,4.35-6.01c4.89-4.01,7.35-4.52,7.34-4.52
		c0.15-0.02,0.29-0.06,0.42-0.12l0.47-0.21C171.17,17.94,170.19,18.84,169.26,19.79z M161.84,19.77l-0.25,0.2
		c-2.73,2.28-5,5.04-6.76,8.13c-0.89,0.05-1.78,0.12-2.64,0.19c1.19-2.27,2.64-4.38,4.33-6.3l0.11-0.1c0.05-0.05,0.1-0.1,0.16-0.14
		c5.25-4.39,7.89-4.93,7.88-4.93c0.15-0.02,0.29-0.06,0.43-0.13l0.04-0.02C163.97,17.64,162.87,18.67,161.84,19.77z M154.32,19.87
		c-2.88,2.51-5.24,5.56-7.01,8.97c-0.96,0.13-1.91,0.28-2.82,0.43c1.24-2.64,2.8-5.1,4.68-7.32l0.09-0.08
		c0.24-0.22,0.47-0.43,0.72-0.64c5.36-4.48,8.05-5.02,8.04-5.02c0.04-0.01,0.08-0.01,0.11-0.02
		C156.77,17.32,155.49,18.55,154.32,19.87z M146.93,19.87c-3.14,2.88-5.63,6.41-7.39,10.35c-1.04,0.23-2.03,0.46-2.96,0.69
		c1.28-3.25,3.03-6.28,5.21-8.95c0.48-0.46,0.94-0.87,1.39-1.24c4.16-3.47,6.74-4.62,7.73-4.97c0.07-0.01,0.14-0.01,0.22-0.02
		C149.62,16.99,148.22,18.37,146.93,19.87z M128.99,37.14h17.93v5.47h-8.29v3.96h6.14v5.47h-6.14v6.9h-9.64V37.14z M149.06,74.23
		l0.14,0.14c0.89,1.07,1.74,2.01,2.6,2.88c1.14,1.16,2.33,2.26,3.57,3.29c-4.82-2.49-8.4-5.46-10.88-7.99
		c-0.16-0.16-0.31-0.33-0.47-0.5l-0.2-0.22c-0.54-0.68-1.05-1.38-1.54-2.08c0.67-0.35,1.4-0.71,2.18-1.06
		C145.83,70.65,147.37,72.51,149.06,74.23z M140.3,76.13c-1.05-1.06-2.04-2.17-2.97-3.32c0.52-0.39,1.22-0.87,2.08-1.4
		c0.66,0.81,1.34,1.62,2.06,2.39c1.13,1.42,2.3,2.75,3.48,3.95c3.54,3.6,8.5,7.54,15.12,10.58
		C150.99,85.32,144.57,80.46,140.3,76.13z M151.5,72.35c-1.34-1.61-2.56-3.3-3.65-5.06c0.72-0.26,1.47-0.52,2.25-0.77
		c1.64,2.6,3.56,5.05,5.76,7.28c0.29,0.3,0.61,0.6,0.92,0.9c0.68,0.78,1.3,1.45,1.89,2.05c1.2,1.22,2.46,2.38,3.78,3.46
		C157.6,77.79,154,74.86,151.5,72.35z M209.82,79.12c-1.15,1.23-7.22,7.04-21.72,9.98c-10.36,2.11-23.01-0.69-23.01-0.69
		s14.44,0.39,22.46-1.32C204.48,83.49,208.9,80.03,209.82,79.12c0.14-0.15,0.21-0.24,0.21-0.24S209.97,78.97,209.82,79.12z
		 M211.08,77.46c0,0-1.2-0.5-1.56-0.69c-0.37-0.2-2.02-1.12-2.02-1.12c0,0,0,0,0.01-0.01c-3.06-1.67-6.53-4.24-8.71-6.47
		c-6.43-6.56-10.12-15.37-10.12-24.17c0-8.03,3.27-15.38,8.97-20.17c0.65-0.55,2.38-1.89,3.27-2.57c-0.5-0.42-1.01-0.82-1.52-1.2
		c-11.27-8.46-19.54-10.8-29.45-10.69c-10.62,0.13-17.9,2.12-17.9,2.12s7.59-3.54,15.04-4.12c12.72-0.98,24.88,3.27,34.73,11.28
		c9.02,7.33,16.87,17.29,17.47,34.69C219.49,60.68,216.46,71.46,211.08,77.46z M218.46,74.02c4.26-7.32,6.15-16.12,5.27-25.12
		c-0.67-6.91-3.55-14.21-7.98-20.75c6.19,6.64,9.55,14.77,10.21,21.5C226.87,58.92,224.14,67.73,218.46,74.02z M226.35,70.68
		c-0.41,0.25-0.82,0.5-1.23,0.75c3.34-6.72,4.77-14.5,3.99-22.51c-0.68-7.03-5.18-15.94-9.74-22.48
		c7.15,7.38,11.3,16.28,12.07,23.22C232.31,57.4,230.39,64.83,226.35,70.68z M236.54,58.93c0,0.02,0,0.03-0.01,0.05
		c-0.5,2.7-1.35,5.25-2.49,7.62c-0.64,0.28-1.28,0.59-1.93,0.91c2.16-5.73,3.01-12.09,2.38-18.59c-0.69-7.06-6.92-17.71-11.69-24.33
		c7.04,6.88,12.27,16.44,13.39,20.91c0.01,0.03,0.01,0.05,0.02,0.08c0.29,1.3,0.49,2.52,0.59,3.64
		C237.12,52.48,237.03,55.77,236.54,58.93z M241.32,61.71c0,0.01,0,0.02-0.01,0.02c-0.27,0.92-0.59,1.82-0.94,2.71
		c-0.67,0.13-1.36,0.31-2.08,0.53c0.54-1.77,0.97-3.59,1.26-5.47c0-0.01,0-0.02,0.01-0.04c0,0,0,0,0,0c0,0,0,0,0,0
		c0.61-3.31,0.75-6.7,0.42-10.1c-0.14-1.43-0.4-2.94-0.77-4.45c0-0.01,0-0.01-0.01-0.02c0,0,0-0.01,0-0.01
		c-0.04-0.15-0.08-0.31-0.12-0.48c-1.37-5.81-8.01-15.47-11.83-20.65c5.39,5.06,11.38,12.35,13.35,18.29
		c0.83,2.49,1.36,4.9,1.58,7.16C242.6,53.47,242.3,57.7,241.32,61.71z M246.2,63.37c-0.08,0.21-0.17,0.42-0.25,0.63
		c-0.69,0.01-1.38,0.02-2.07,0.06c0.14-0.5,0.28-1,0.4-1.51c1.23-4.22,1.62-8.66,1.19-13.19c-0.25-2.6-0.93-5.47-1.94-8.25
		c0-0.01-0.01-0.02-0.01-0.04v0c0,0,0,0,0,0c-1.58-4.73-7.9-13.52-11.84-18.13c4.26,3.84,10.17,8.94,13.2,16.27
		c1.42,3.43,2.38,6.87,2.68,10C248.03,54.08,247.58,58.84,246.2,63.37z M251.24,64.21c-0.66-0.05-1.34-0.1-2.03-0.14
		c1.62-4.59,2.23-9.67,1.74-14.71c-0.25-2.53-1.01-6.56-3.23-11.31c-1.56-3.66-6.23-10.38-8.7-13.59c3.64,3.19,7.32,6.7,10.28,12.77
		c0,0.01,0.01,0.01,0.01,0.02c2.01,4.05,3.26,8.19,3.63,11.97C253.44,54.34,252.84,59.51,251.24,64.21z M256.34,64.81
		c-0.6-0.09-1.24-0.18-1.9-0.27c1.8-4.71,2.5-9.93,1.99-15.19c-0.42-4.34-1.98-9.13-4.35-13.44c-0.01-0.02-0.02-0.04-0.03-0.05
		c0,0,0,0,0,0c0,0,0,0,0,0c-1.42-2.85-4.06-6.63-6.02-9.13c3.16,2.69,6.32,6.64,7.84,9.07c2.5,4.49,4.03,9.14,4.45,13.43
		C258.84,54.6,258.15,59.97,256.34,64.81z M261.27,65.73c-0.45-0.1-1.05-0.23-1.77-0.37c2.11-4.9,2.95-10.4,2.41-16.01
		c-0.29-2.96-1.13-6.15-2.41-9.26c-0.48-1.37-1.02-2.71-1.58-3.73c-2.42-4.43-4.75-7.7-4.75-7.7s2.97,2.8,5.51,6.41
		c2.87,4.79,4.59,9.78,5.02,14.16C264.26,55.05,263.39,60.72,261.27,65.73z"/>
</g>
<g id="TextOutlined">
	<path class="st0" d="M6.9,37.14h11.5c3.87,0,6.08,1.07,8.19,3.21c2.1,2.14,3.16,4.72,3.16,7.74c0,1.92-0.48,3.74-1.44,5.45
		c-0.96,1.71-2.36,3.04-4.21,3.99c-1.85,0.95-4.08,1.42-6.7,1.42H6.9V37.14z M15.03,44.44v6.15h2.26c1.07,0,1.75-0.14,2.31-0.49
		c0.72-0.45,1.15-1.5,1.15-2.43c0-2.31-1.53-3.23-3.48-3.23H15.03z"/>
	<path class="st0" d="M99.75,37.14h14.24c2.47,0,4.4,0.62,5.81,1.86c1.41,1.24,2.11,2.8,2.11,4.66c0,2.06-0.98,3.94-2.63,5.1
		c1.33,3.04,2.8,6.07,4.36,10.17h-9.79c-0.18-2.97-2.01-7.85-2.01-7.85s-0.69,0.13-2.47,0.03l0.01,7.82h-9.64V37.14z M109.39,41.62
		v4.24h1.42c1.73,0,2.35-0.68,2.35-2.05c0-0.57-0.09-1.04-0.44-1.47c-0.35-0.43-1.16-0.73-1.97-0.73H109.39z"/>
	<path class="st0" d="M32,37.14h14.24c2.47,0,4.4,0.62,5.81,1.86c1.41,1.24,2.11,2.8,2.11,4.66c0,2.06-0.98,3.94-2.63,5.1
		c1.33,3.04,2.8,6.07,4.36,10.17h-9.79c-0.18-2.97-2.01-7.85-2.01-7.85s-0.69,0.13-2.47,0.03l0.01,7.82H32V37.14z M41.64,41.62v4.24
		h1.42c1.73,0,2.35-0.68,2.35-2.05c0-0.57-0.09-1.04-0.44-1.47c-0.35-0.43-1.16-0.73-1.97-0.73H41.64z"/>
	<path class="st0" d="M69.64,58.94h-8.12v-9.51l-8.31-12.29h9.77l2.6,4.94l2.59-4.94h9.77l-8.3,12.29V58.94z"/>
	<path class="st0" d="M97.53,53.47v5.47h-18.1v-21.8h18.1v5.47h-8.46v2.7h5.89v5.47h-5.89v2.69H97.53z"/>
	<g>
		<path d="M215.69,57.5l-7.64-9.65l5.64-7.33c-0.41-1.16-0.87-2.29-1.37-3.38h-6.5l-3.07,4.01l-3.21-4.01H189l8.51,10.77L189,58.94
			h10.49l3.33-4.33l3.46,4.33h9.23C215.58,58.46,215.64,57.98,215.69,57.5z"/>
	</g>
	<g>
		<path d="M260.86,80.1c0.79,0,1.55,0.2,2.27,0.59c0.73,0.4,1.3,0.96,1.71,1.7c0.42,0.74,0.62,1.51,0.62,2.32
			c0,0.8-0.2,1.57-0.61,2.29c-0.41,0.73-0.97,1.3-1.7,1.7c-0.73,0.41-1.49,0.61-2.29,0.61c-0.8,0-1.57-0.2-2.29-0.61
			c-0.73-0.41-1.3-0.97-1.7-1.7c-0.41-0.73-0.61-1.49-0.61-2.29c0-0.81,0.21-1.58,0.62-2.32c0.42-0.74,0.99-1.3,1.71-1.7
			C259.31,80.3,260.07,80.1,260.86,80.1z M260.87,81c-0.63,0-1.24,0.16-1.82,0.48c-0.58,0.32-1.04,0.77-1.37,1.37
			c-0.33,0.59-0.5,1.22-0.5,1.86c0,0.65,0.16,1.26,0.49,1.85c0.33,0.59,0.78,1.04,1.37,1.37c0.59,0.33,1.2,0.49,1.84,0.49
			c0.65,0,1.26-0.16,1.84-0.49c0.58-0.33,1.04-0.79,1.37-1.37c0.33-0.59,0.49-1.2,0.49-1.85c0-0.65-0.17-1.27-0.5-1.86
			c-0.33-0.59-0.79-1.05-1.38-1.37C262.11,81.16,261.5,81,260.87,81z M258.78,87.17v-4.89h0.99c0.93,0,1.45,0,1.56,0.01
			c0.33,0.03,0.58,0.09,0.77,0.2c0.18,0.1,0.33,0.26,0.46,0.47c0.12,0.21,0.18,0.44,0.18,0.7c0,0.35-0.12,0.65-0.35,0.91
			c-0.23,0.25-0.55,0.41-0.97,0.47c0.15,0.06,0.26,0.12,0.34,0.18s0.19,0.19,0.33,0.38c0.04,0.05,0.16,0.25,0.36,0.6l0.58,0.99
			h-1.23l-0.41-0.79c-0.28-0.53-0.51-0.87-0.69-1.01s-0.41-0.21-0.69-0.21h-0.26v2.01H258.78z M259.77,84.39h0.4
			c0.57,0,0.93-0.02,1.07-0.07c0.14-0.04,0.25-0.12,0.33-0.23c0.08-0.11,0.12-0.24,0.12-0.38c0-0.14-0.04-0.26-0.12-0.36
			c-0.08-0.11-0.19-0.18-0.33-0.23c-0.14-0.05-0.5-0.07-1.06-0.07h-0.4V84.39z"/>
	</g>
</g>
</svg>
